HIERARCHY
ROOT locator2
{
  OFFSET 53.6172 30.1899 0.816905
  CHANNELS 6 Xposition Yposition Zposition Zrotation Xrotation Yrotation
  JOINT koshi
  {
    OFFSET 0 0 0
    CHANNELS 6 Xposition Yposition Zposition Zrotation Xrotation Yrotation
    JOINT sippo01
    {
      OFFSET 0 42.8363 -0.548134
      CHANNELS 6 Xposition Yposition Zposition Zrotation Xrotation Yrotation
      JOINT sippo02
      {
        OFFSET 0 44.0461 -3.28882
        CHANNELS 6 Xposition Yposition Zposition Zrotation Xrotation Yrotation
        JOINT sippo03
        {
          OFFSET 0 34.1929 -2.46662
          CHANNELS 6 Xposition Yposition Zposition Zrotation Xrotation Yrotation
          JOINT sippo04
          {
            OFFSET 0 30.0959 -1.75404
            CHANNELS 6 Xposition Yposition Zposition Zrotation Xrotation Yrotation
            JOINT sippo05
            {
              OFFSET 0 28.3637 -1.75404
              CHANNELS 6 Xposition Yposition Zposition Zrotation Xrotation Yrotation
              JOINT sippo06
              {
                OFFSET 0 31.6071 -3.2043
                CHANNELS 6 Xposition Yposition Zposition Zrotation Xrotation Yrotation
                End Site
                {
                  OFFSET 0 0 0
                }
              }
            }
          }
        }
      }
    }
    JOINT R_momo
    {
      OFFSET -27.891 13.5892 3.92723
      CHANNELS 6 Xposition Yposition Zposition Zrotation Xrotation Yrotation
      JOINT R_hiza
      {
        OFFSET 0 28.01 1.8232
        CHANNELS 6 Xposition Yposition Zposition Zrotation Xrotation Yrotation
        JOINT R_ashi
        {
          OFFSET 0 24.3992 -2.49174
          CHANNELS 6 Xposition Yposition Zposition Zrotation Xrotation Yrotation
          End Site
          {
            OFFSET 0 0 0
          }
        }
      }
    }
    JOINT L_momo
    {
      OFFSET 27.891 13.5892 3.92714
      CHANNELS 6 Xposition Yposition Zposition Zrotation Xrotation Yrotation
      JOINT L_hiza
      {
        OFFSET 0 28.0098 1.82319
        CHANNELS 6 Xposition Yposition Zposition Zrotation Xrotation Yrotation
        JOINT L_ashi
        {
          OFFSET 0 24.3992 -2.49171
          CHANNELS 6 Xposition Yposition Zposition Zrotation Xrotation Yrotation
          End Site
          {
            OFFSET 0 0 0
          }
        }
      }
    }
  }
  JOINT hara
  {
    OFFSET 0 2.15392 0
    CHANNELS 6 Xposition Yposition Zposition Zrotation Xrotation Yrotation
    JOINT mune
    {
      OFFSET 0 62.0609 0.472494
      CHANNELS 6 Xposition Yposition Zposition Zrotation Xrotation Yrotation
      JOINT R_kata
      {
        OFFSET 22.6695 9.65301 -5.3622
        CHANNELS 6 Xposition Yposition Zposition Zrotation Xrotation Yrotation
        JOINT R_hiji
        {
          OFFSET 0 25.813 1.69098
          CHANNELS 6 Xposition Yposition Zposition Zrotation Xrotation Yrotation
          JOINT R_te
          {
            OFFSET 0 28.5636 -0.966307
            CHANNELS 6 Xposition Yposition Zposition Zrotation Xrotation Yrotation
            End Site
            {
              OFFSET 0 0 0
            }
          }
        }
      }
      JOINT L_kata
      {
        OFFSET -22.6695 9.65298 -5.3622
        CHANNELS 6 Xposition Yposition Zposition Zrotation Xrotation Yrotation
        JOINT L_hiji
        {
          OFFSET 0 25.813 1.69102
          CHANNELS 6 Xposition Yposition Zposition Zrotation Xrotation Yrotation
          JOINT L_te
          {
            OFFSET 0 28.5636 -0.966295
            CHANNELS 6 Xposition Yposition Zposition Zrotation Xrotation Yrotation
            End Site
            {
              OFFSET 0 0 0
            }
          }
        }
      }
      JOINT kubi
      {
        OFFSET 0 23.1438 -0.944988
        CHANNELS 6 Xposition Yposition Zposition Zrotation Xrotation Yrotation
        JOINT atama
        {
          OFFSET 0 20.8625 4.12737
          CHANNELS 6 Xposition Yposition Zposition Zrotation Xrotation Yrotation
          JOINT ago
          {
            OFFSET 0 7.552 -7.58201
            CHANNELS 6 Xposition Yposition Zposition Zrotation Xrotation Yrotation
            End Site
            {
              OFFSET 0 0 0
            }
          }
        }
      }
    }
  }
}
MOTION
Frames:	8
Frame Time:	0.0333333
-0.000537865 26.5758 -1.98247e-006 -90 -3.50835e-015 -90 -1.13687e-013 0 0 -174.666 3.09235 0.502869 3.12924e-007 42.8363 -0.548132 2.96678 -15.9213 3.7374 -1.51992e-006 44.0461 -3.28883 5.39863 9.40644 -5.26451 -3.8147e-006 34.1929 -2.46661 6.42227 1.07457 -1.69287 -5.72205e-006 30.0959 -1.75403 6.02384 9.41053 -0.738884 -2.28882e-005 28.3637 -1.75403 9.40411 -5.87715 5.77354 -1.52588e-005 31.6072 -3.2043 5.2324 -6.13172 -5.40652 -27.891 13.5892 3.92723 117.512 -18.6536 -48.4336 7.62939e-006 28.01 1.8232 12.0072 -82.2991 -3.96839 -7.10543e-015 24.3992 -2.49173 -149.802 63.0264 -167.627 27.891 13.5892 3.92714 -102.223 -21.3536 59.5405 -7.62939e-006 28.0098 1.82319 -3.56796 -68.4948 9.57647 -7.10543e-015 24.3992 -2.49173 140.966 67.3214 166.698 6.07685e-007 2.15392 3.55271e-015 5.50559e-008 -0.414958 -5.50559e-008 1.75087e-005 62.0609 0.472494 -0 -7.59855e-017 -0 22.6695 9.65299 -5.36221 -148.413 2.77036 46.4793 -1.14441e-005 25.813 1.69098 179.965 -77.8737 179.749 3.8147e-006 28.5636 -0.966309 40.9858 13.2105 -94.3865 -22.6695 9.65298 -5.3622 130.764 -5.33754 -52.4123 -1.14441e-005 25.813 1.69102 -179.768 -75.313 -178.037 -7.6294e-006 28.5636 -0.966296 -44.2858 34.4617 109.982 6.57609e-006 23.1438 -0.944994 5.19523e-007 -4.0374 -5.19523e-007 0.00559906 20.8625 4.12737 5.19202e-007 -4.03482 -5.19202e-007 0.0137747 7.55202 -7.58201 -5.90048e-007 4.26424 5.90048e-007 
0.19042 26.9802 -0.373466 -90 -3.50835e-015 -90 -1.13687e-013 0 0 -175.699 2.73101 0.528057 3.12924e-007 42.8363 -0.548132 2.89008 -15.4508 4.09113 -1.50109e-006 44.0461 -3.28883 4.81946 9.94867 -4.92536 -3.39006e-006 34.1929 -2.46661 5.84737 1.58081 -2.1071 -4.94471e-006 30.0959 -1.75403 4.7099 9.65422 -1.379 -2.13821e-005 28.3637 -1.75403 9.12472 -4.88874 5.62562 -1.39265e-005 31.6072 -3.2043 4.74665 -5.68078 -6.02589 -27.891 13.5892 3.92723 118.259 -18.8515 -48.6775 7.64368e-006 28.01 1.8232 8.75623 -80.2267 -6.28969 6.69239e-008 24.3992 -2.49173 -148.969 65.0454 -168.041 27.891 13.5892 3.92714 -100.508 -22.6997 60.1046 -7.62071e-006 28.0098 1.82319 -3.44697 -68.2232 10.2916 9.73156e-008 24.3992 -2.49173 142.221 65.8437 166.126 6.07685e-007 2.15392 0 -0.863722 -0.325647 -0.108895 2.72876e-012 62.0609 0.472494 -1.00179e-005 -5.60196e-013 1.00179e-005 22.6695 9.653 -5.36221 -147.822 2.74094 45.5134 -1.14441e-005 25.813 1.69098 179.965 -77.2836 179.559 3.8147e-006 28.5636 -0.966309 41.3817 13.4271 -94.4028 -22.6695 9.65297 -5.3622 131.174 -4.42633 -50.9603 -1.14441e-005 25.813 1.69102 -179.745 -75.624 -178.415 -7.63211e-006 28.5636 -0.966296 -44.8315 34.0646 108.855 -1.1291e-013 23.1438 -0.944994 0.546848 -3.40524 -0.364506 2.61925e-009 20.8625 4.12737 0.624594 -3.35276 -0.363513 -3.37432e-008 7.55202 -7.58201 -1.00396e-005 3.77053 6.60212e-007 
0.37767 27.3767 -0.739678 -90 -3.50835e-015 -90 -1.13687e-013 0 0 -176.711 2.37505 0.540642 3.12924e-007 42.8363 -0.548132 2.81558 -14.9905 4.43831 -1.48307e-006 44.0461 -3.28883 4.24867 10.4816 -4.58137 -2.97151e-006 34.1929 -2.46661 5.28312 2.07873 -2.50412 -4.16273e-006 30.0959 -1.75403 3.42031 9.88904 -1.99647 -1.98254e-005 28.3637 -1.75403 8.59065 -2.72964 5.31093 -1.2379e-005 31.6072 -3.20429 4.26448 -4.32115 -6.69627 -27.891 13.5892 3.92723 118.997 -19.036 -49.7075 7.62138e-006 28.01 1.8232 6.67845 -78.1746 -7.45183 1.84863e-007 24.3992 -2.49173 -147.977 67.0214 -168.599 27.891 13.5892 3.92714 -97.6839 -24.2071 60.7655 -7.5597e-006 28.0098 1.82319 -3.33153 -67.9572 10.9886 2.9689e-007 24.3992 -2.49173 143.478 64.2656 165.556 6.07685e-007 2.15392 -3.55271e-015 -1.71187 -0.237945 -0.211525 1.81954e-012 62.0609 0.472494 -1.04104e-012 8.81703e-014 1.00179e-005 22.6695 9.653 -5.36221 -148.266 1.56475 45.3435 -1.14441e-005 25.813 1.69098 179.966 -76.098 179.376 3.8147e-006 28.5636 -0.966309 41.6298 13.6657 -96.1882 -22.6695 9.65297 -5.3622 131.01 -2.9389 -48.9644 -1.14441e-005 25.813 1.69102 -179.698 -77.159 -178.76 -7.63564e-006 28.5636 -0.966296 -45.2919 33.5655 106.547 -7.83595e-013 23.1438 -0.944994 1.38269 -3.04863 -1.22232 2.12651e-009 20.8625 4.12737 1.26251 -3.08273 -1.4015 -6.51926e-008 7.55203 -7.58201 -1.0055e-005 4.92343 8.62963e-007 
0.566774 27.7771 -1.10952 -90 -3.50835e-015 -90 -1.13687e-013 0 0 -178.033 2.01415 0.55043 3.12924e-007 42.8363 -0.548132 2.7407 -14.5249 4.7907 -1.46522e-006 44.0461 -3.28882 3.67191 11.0601 -4.22606 -2.54727e-006 34.1929 -2.4666 4.7131 2.58254 -2.89518 -3.35485e-006 30.0959 -1.75403 2.116 10.1217 -2.60958 -1.81858e-005 28.3637 -1.75403 7.80747 0.0253228 4.98552 -1.05725e-005 31.6072 -3.20429 3.7821 -2.9458 -7.34939 -27.891 13.5892 3.92723 120.831 -19.2662 -49.7471 7.64865e-006 28.01 1.8232 5.20579 -76.0911 -7.99555 3.54499e-007 24.3992 -2.49173 -146.435 69.1924 -169.701 27.891 13.5892 3.92714 -94.5528 -25.3815 61.5879 -7.45226e-006 28.0098 1.82319 -3.21737 -67.688 11.6911 5.15844e-007 24.3992 -2.49173 144.7 62.696 164.973 6.07685e-007 2.15392 0 -2.56587 -0.150773 -0.313293 1.81899e-012 62.0609 0.472494 -8.00568e-029 8.47941e-016 5.40948e-012 22.6695 9.653 -5.36221 -148.698 -0.273501 45.5421 -1.14441e-005 25.813 1.69098 179.967 -75.0135 178.721 3.8147e-006 28.5636 -0.966309 41.8022 13.5493 -98.3902 -22.6695 9.65297 -5.3622 130.746 -2.71255 -48.4024 -1.14441e-005 25.813 1.69102 -179.576 -80.3109 -179.033 -7.63886e-006 28.5636 -0.966296 -46.0131 32.6574 104.083 -7.84039e-013 23.1438 -0.944994 2.22623 -2.9575 -2.81393 2.12651e-009 20.8625 4.12737 2.12142 -3.08124 -2.97561 -1.07102e-007 7.55203 -7.58201 -1.0054e-005 4.8549 8.50894e-007 
0.656974 28.1814 -1.47957 -90 -3.50835e-015 -90 -1.13687e-013 0 0 -179.366 1.64833 0.543368 3.12924e-007 42.8363 -0.548132 2.6655 -14.0539 5.14842 -1.44759e-006 44.0461 -3.28882 3.08239 11.6445 -3.854 -2.11494e-006 34.1929 -2.4666 3.5069 3.09446 -3.24601 -2.06789e-006 30.0959 -1.75403 0.796471 10.352 -3.2183 -1.60606e-005 28.3637 -1.75402 6.7055 2.47921 4.80224 -8.06621e-006 31.6072 -3.20429 3.29815 -1.55537 -7.98956 -27.891 13.5892 3.92723 122.705 -19.4274 -49.7941 7.65842e-006 28.01 1.8232 4.10961 -73.9828 -7.84794 5.39163e-007 24.3992 -2.49173 -144.473 71.3656 -171.192 27.891 13.5892 3.92714 -90.352 -26.2022 62.693 -7.2462e-006 28.0098 1.82319 -3.10307 -67.4031 12.3937 8.06532e-007 24.3992 -2.49173 145.54 61.5546 164.699 6.07685e-007 2.15392 -3.55271e-015 -3.42928 -0.0622304 -0.412406 1.81921e-012 62.0609 0.472494 -2.14051e-012 3.47997e-014 1.00179e-005 22.6695 9.653 -5.36221 -149.098 -2.14649 45.6893 -1.14441e-005 25.813 1.69098 179.967 -73.919 178.06 3.8147e-006 28.5636 -0.966309 41.988 13.4329 -100.618 -22.6695 9.65297 -5.3622 130.233 -2.47376 -47.8437 -1.14441e-005 25.813 1.69102 -179.335 -83.4932 -179.19 -7.63982e-006 28.5636 -0.966296 -46.5264 31.4194 101.488 -7.83817e-013 23.1438 -0.944994 3.21997 -3.04823 -4.77434 2.12651e-009 20.8625 4.12737 2.88039 -3.35623 -4.92264 -1.46218e-007 7.55203 -7.58201 -1.00526e-005 4.76169 8.34482e-007 
0.745423 28.5778 -1.50141 -90 -3.50835e-015 -90 -1.13687e-013 0 0 179.325 1.28808 0.520243 3.12925e-007 42.8363 -0.548132 2.59231 -13.5922 5.50019 -1.43074e-006 44.0461 -3.28882 2.03817 12.2207 -3.37929 -1.37344e-006 34.1929 -2.46659 2.32266 3.59622 -3.56928 -5.10509e-007 30.0959 -1.75402 -0.498667 10.5725 -3.80441 -1.36799e-005 28.3637 -1.75402 5.4339 3.69722 4.86328 -5.09359e-006 31.6072 -3.20429 2.82671 -0.192214 -9.02473 -27.891 13.5892 3.92723 124.56 -19.517 -49.9771 7.64443e-006 28.01 1.8232 3.33584 -72.2233 -7.39546 7.3121e-007 24.3992 -2.49173 -142.009 73.4707 -173.168 27.891 13.5892 3.92714 -85.8773 -27.4214 63.9389 -7.03509e-006 28.0098 1.82319 -2.84263 -65.8343 12.6634 1.05073e-006 24.3992 -2.49173 146.193 60.8977 164.498 6.07685e-007 2.15392 0 -4.26515 0.0329285 -0.50758 1.81966e-012 62.0609 0.472494 -1.00179e-005 -1.72973e-012 1.00179e-005 22.6695 9.653 -5.36221 -149.506 -4.00117 43.2082 -1.14441e-005 25.813 1.69098 179.968 -72.8457 177.412 3.8147e-006 28.5636 -0.966309 43.3438 13.1508 -103.435 -22.6695 9.65297 -5.3622 129.729 -2.24417 -47.2932 -1.14441e-005 25.813 1.69102 -178.651 -86.6143 -178.898 -7.63822e-006 28.5636 -0.966296 -47.0408 29.815 99.0944 -7.83373e-013 23.1438 -0.944994 4.05706 -3.40027 -6.68187 2.12651e-009 20.8625 4.12737 3.52055 -3.89148 -6.99208 -1.80677e-007 7.55203 -7.58201 -3.3256e-012 3.33994 3.53642e-013 
0.834747 28.9783 -1.0913 -90 -3.50835e-015 -90 -1.13687e-013 0 0 178.005 0.924213 0.479893 3.12924e-007 42.8363 -0.548132 2.51895 -13.1262 5.85651 -1.41418e-006 44.0461 -3.28882 0.978367 12.7995 -2.87794 -6.23806e-007 34.1929 -2.4666 1.12746 4.6751 -3.88562 1.0891e-006 30.0959 -1.75396 -1.80843 10.79 -4.38647 -1.12416e-005 28.3637 -1.75404 4.0135 3.78647 5.07823 -1.83719e-006 31.6072 -3.20427 2.35188 1.18898 -10.0481 -27.891 13.5892 3.92723 127.417 -19.9482 -49.8484 7.61841e-006 28.01 1.8232 2.83759 -71.4585 -6.64306 9.73642e-007 24.3992 -2.49173 -140.088 75.1486 -175.233 27.891 13.5892 3.92714 -81.7876 -28.1394 65.1758 -6.80888e-006 28.0098 1.82319 -2.53465 -63.4023 12.9879 1.18884e-006 24.3992 -2.49173 145.732 61.2752 164.973 6.07685e-007 2.15392 0 -5.10647 0.113013 -0.601272 1.81966e-012 62.0609 0.472494 -5.36719e-012 9.31803e-016 5.36838e-012 22.6695 9.653 -5.36221 -150.008 -5.89749 40.663 -1.14441e-005 25.813 1.69098 179.969 -71.7613 176.756 3.8147e-006 28.5636 -0.966309 44.6935 12.7871 -106.541 -22.6695 9.65297 -5.3622 128.842 -1.99946 -43.8668 -1.14441e-005 25.813 1.69102 -2.15683 -87.7696 -2.79623 -7.63246e-006 28.5636 -0.966296 -46.9496 27.9734 96.8029 -7.82485e-013 23.1438 -0.944994 4.62307 -4.02441 -8.77566 2.12651e-009 20.8625 4.12737 3.95547 -4.83884 -9.05805 -2.08616e-007 7.55203 -7.58201 -1.00441e-005 4.13616 7.24468e-007 
0.918803 29.3826 -0.838201 -90 -3.50835e-015 -90 -1.13687e-013 0 0 176.672 0.556938 0.4218 3.12925e-007 42.8363 -0.548132 2.44238 -12.3534 6.20439 -1.40084e-006 44.0461 -3.28882 -0.095554 13.3794 -2.34977 1.29737e-007 34.1929 -2.46661 -0.0833982 5.76419 -4.15908 2.71225e-006 30.0959 -1.75407 -3.1338 11.01 -4.9634 -8.80914e-006 28.3637 -1.75404 2.44649 3.20893 5.34313 1.61239e-006 31.6072 -3.20433 1.87395 2.58234 -11.0575 -27.891 13.5892 3.92723 130.452 -19.9948 -49.3936 7.56588e-006 28.01 1.8232 2.36566 -70.611 -5.85052 1.21567e-006 24.3992 -2.49173 -138.405 76.984 -177.062 27.891 13.5892 3.92714 -77.4099 -28.2835 66.482 -6.51839e-006 28.0098 1.82319 -2.27748 -60.9557 13.2605 1.31854e-006 24.3992 -2.49173 145.449 61.8833 165.067 6.07685e-007 2.15392 -7.10543e-015 -5.95795 0.371959 -0.675362 1.82032e-012 62.0609 0.472494 7.95139e-016 -1.00635e-015 -9.93923e-017 22.6695 9.653 -5.36221 -150.434 -8.14913 38.2327 -1.14441e-005 25.813 1.69098 179.967 -71.9201 176.301 3.8147e-006 28.5636 -0.966309 46.7412 12.2833 -109.795 -22.6695 9.65297 -5.3622 127.786 -4.2653 -43.6258 -1.14441e-005 25.813 1.69102 -0.639709 -82.1022 -1.66856 -7.62229e-006 28.5636 -0.966296 -46.1869 25.6395 95.221 -7.86038e-013 23.1438 -0.944994 4.91045 -5.20105 -10.4838 2.12651e-009 20.8625 4.12737 4.18171 -6.20899 -10.7518 -2.28174e-007 7.55203 -7.58201 -1.00553e-005 4.94019 8.66004e-007 
